<svg xmlns="http://www.w3.org/2000/svg" width="1240" height="1240"><path d="M776.329 215.762c-6.693 14.156-11.868 26.03-11.5 26.386.369.357 2.921.939 5.671 1.295l5 .646 11.433-24.294c6.288-13.362 12.038-25.533 12.776-27.045l1.342-2.75-6.275.012-6.276.013-12.171 25.737m-2.682 67.282c-5.275 30.669-5.298 29.91.92 29.941l3.067.015 4.848-28.001c2.667-15.401 4.645-28.206 4.396-28.455-.249-.249-2.236-.736-4.416-1.082l-3.962-.63-4.853 28.212m-32.941-25.294c-.227.413-3.066 16.216-6.309 35.119l-5.897 34.368-12.192-.692-12.192-.692-2.215 4.324c-4.046 7.9-82.835 174.038-83.44 175.947-.58 1.825 1.778 1.876 86.341 1.876h86.936l.62-3.75c.341-2.062.625-6.515.631-9.895l.011-6.146 9.771-8.51c19.195-16.716 36.373-36.405 41.406-47.457 4.195-9.21 5.821-17.192 6.468-31.742.66-14.849-1.114-31.31-5.247-48.686l-2.542-10.686-6.798-1.547c-15.916-3.62-54.178-8.631-77.808-10.19-6.236-.412-10.25-1.099-10.25-1.754 0-.592 2.523-15.603 5.607-33.357 3.084-17.755 5.376-32.883 5.093-33.618-.294-.767-3.515-1.834-7.549-2.5-8.243-1.361-9.888-1.426-10.445-.412M458 328.713c-46.887 2.364-72.429 4.366-74.015 5.801-2.924 2.645-7.83 14.628-9.003 21.986-1.295 8.126-.524 22.705 1.746 33 1.68 7.616 11.407 30.39 19.435 45.5 9.16 17.241 29.837 50.317 29.837 47.729 0-.364 4.246-16.09 9.435-34.946 21.192-77.006 31.457-114.429 32.101-117.033.567-2.291.371-2.718-1.178-2.557-1.022.106-4.783.34-8.358.52m404.623 17.988c7.476 30.924 8.098 60.235 1.743 82.164-4.647 16.038-11.605 26.21-32.851 48.028-9.771 10.034-13.561 14.547-12.515 14.902.825.281 2.973 2.059 4.773 3.953l3.273 3.443 4.227-3.745c6.079-5.386 22.143-22.921 27.434-29.946 6.372-8.458 11.081-18.306 14.075-29.43 2.356-8.752 2.579-11.279 2.606-29.57.033-21.552-1.64-34.694-6.94-54.498-2.982-11.141-4.419-14.373-6.578-14.789-1.423-.274-1.334.856.753 9.488M793.449 541.15c-7.551 15.043-29.884 59.244-49.631 98.225-19.746 38.981-35.621 71.156-35.277 71.5.576.576 490.21 2.018 491.557 1.448.329-.139-13.603-28.554-30.959-63.145l-31.557-62.891-163.041-35.81c-89.673-19.695-164.014-36.005-165.203-36.243-1.934-.388-3.606 2.444-15.889 26.916M239.5 566.403c-94.05 21.561-172.249 39.528-173.775 39.925-9.149 2.383-23.023 23.726-31.084 47.82-9.059 27.075-8.718 48.519.859 54.019 2.808 1.613 19.058 1.769 254.106 2.438l251.106.715 1.652-4.41c11.593-30.956 24.477-66.402 24.226-66.653-.175-.175-35.592-1.642-78.704-3.26-93.664-3.515-102.886-3.962-102.886-4.99 0-.886 26.566-97.946 27.989-102.257.755-2.289.622-2.733-.791-2.65-.934.055-78.648 17.741-172.698 39.303m952.834 89.107l37.449 74.49h-12.392c-6.847 0-12.391.41-12.391.917 0 .504 1.544 5.567 3.431 11.25 5.002 15.062 6.606 23.668 7.258 38.938.923 21.647-2.969 39.738-12.705 59.046-6.86 13.605-13.64 22.585-27.445 36.349-14.768 14.724-24.317 21.823-50.039 37.199-60.543 36.191-131.171 70.719-163.5 79.932l-9.5 2.707-107 .71c-58.85.391-127.054.765-151.564.831l-44.564.121-27.436 29.706c-15.09 16.338-28.917 30.565-30.727 31.616-4.083 2.37-11.662 2.596-15.913.475l-3.163-1.577.997 2.64c1.243 3.292 5.511 7.87 9.07 9.729 4.667 2.438 12.791 1.817 17.514-1.339 2.264-1.513 15.966-15.686 30.451-31.497l26.335-28.747 37-.123c20.35-.067 88.525-.443 151.5-.836l114.5-.713 9.024-2.587c35.969-10.312 106.663-45.077 169.96-83.58 22.037-13.405 32.599-21.418 45.86-34.79 18.474-18.631 29.521-37.612 35.958-61.786 1.853-6.959 2.156-10.818 2.165-27.591.01-17.851-.215-20.391-2.659-30.044-1.469-5.799-3.826-13.615-5.239-17.369-1.413-3.754-2.569-7.222-2.569-7.706 0-.485 5.625-.881 12.499-.881h12.499l-39.738-79.485c-21.857-43.717-40.332-79.712-41.056-79.99-.725-.278 15.534 33.015 36.13 73.985M22.487 722.813c1.777 3.243 4.041 6.187 4.757 6.187.287 0 .746-.855 1.02-1.901.362-1.386-.552-2.587-3.376-4.436l-3.874-2.536 1.473 2.686m273.013 15.83c-16.423 3.472-30.656 11.513-44 24.857-13.593 13.593-21.482 27.74-24.933 44.708-1.977 9.726-2.018 27.52-.082 36.719 6.964 33.106 30.75 58.558 64.233 68.732 7.736 2.35 10.509 2.673 23.282 2.712 20.687.063 34.226-3.811 50.536-14.458 32.238-21.045 47.75-62.698 36.993-99.334-9.842-33.519-34.963-56.92-68.844-64.129-8.688-1.848-28.004-1.748-37.185.193m199 .004c-25.963 5.506-49.643 23.858-61.745 47.853-3.977 7.886-7.646 20.736-8.861 31.035-3.81 32.308 11.828 65.38 39.876 84.33 27.815 18.794 64.866 19.978 94.903 3.033 8.229-4.642 26.116-21.317 29.604-27.598l1.777-3.199-3.277-.51c-1.802-.28-23.077-1.885-47.277-3.565-58.534-4.063-55.726-3.74-54.907-6.32.365-1.149 10.893-29.791 23.396-63.648l22.732-61.558-2.61-.632c-5.018-1.214-26.567-.714-33.611.779m204.5-.359l-5.5 1.212-16.23 31.5c-8.927 17.325-16.239 31.9-16.25 32.39-.012.508 6.31.622 14.73.266 8.112-.343 40.106-.922 71.096-1.285l56.346-.662-.614-3.068c-1.027-5.137-8.118-18.759-13.368-25.682-11.4-15.031-27.025-26.134-45.21-32.124-8.64-2.846-10.858-3.158-24.5-3.444-9.253-.194-17.107.15-20.5.897m375 .337c-16.138 3.125-30 13.202-37.267 27.093-4.707 8.998-5.878 13.823-5.863 24.154.016 10.755 2.621 19.64 8.214 28.016 20.725 31.036 65.937 30.871 86.111-.316 5.584-8.633 8.035-17.193 8.038-28.072.005-22.464-13.439-41.124-35.031-48.621-5.587-1.939-19.251-3.212-24.202-2.254m72.287.681c1.132 2.949 6.618 29.444 7.785 37.595 3.517 24.57-2.487 44.145-18.473 60.226-10.348 10.409-25.069 19.668-53.099 33.396-13.75 6.735-45.25 22.241-70 34.459-24.75 12.218-48.945 23.964-53.767 26.104l-8.766 3.889-134.18.679-134.179.678-3.175 3.084c-1.746 1.696-10.981 11.586-20.523 21.977l-17.348 18.894 152.469-.728c166.831-.796 156.736-.393 175.673-6.997 40.579-14.152 142.881-67.871 175.524-92.169 26.634-19.825 43.773-43.043 50.983-69.064 1.831-6.611 2.176-10.552 2.219-25.329.053-18.33-1.236-26.286-6.589-40.669l-1.924-5.168-7.208-.552c-3.965-.303-13.683-.824-21.596-1.158-12.369-.522-14.308-.403-13.826.853m-1012.012 2.233c-7.379 1.987-15.983 6.552-21.462 11.385-18.866 16.644-22.676 45.618-8.783 66.788 17.13 26.102 53.049 30.895 77.115 10.289 18.718-16.027 22.666-46.081 8.783-66.871-12.078-18.086-35.266-27.082-55.653-21.591m-68.775.501c-6.6.379-14.78.75-18.178.824l-6.178.136-2.035 5.439c-13.399 35.812-8.741 72.444 13.015 102.342 6.895 9.476 20.694 23.13 32.086 31.749 31.307 23.684 128.037 75.021 173.163 91.902 22.141 8.282 5.599 7.644 180.127 6.95 85.25-.339 156.541-.915 158.424-1.278l3.424-.662 5.275-19.971c2.902-10.984 5.299-20.58 5.326-21.324.043-1.135-26.596-1.237-165.199-.633l-165.25.72-9-3.993c-4.95-2.197-31.5-15.189-59-28.873-27.5-13.683-58.743-29.151-69.429-34.373-39.419-19.264-57.7-35.301-64.356-56.453-1.891-6.011-2.207-9.239-2.159-22.042.049-13.121.475-16.942 3.399-30.5 4.894-22.685 4.782-21.031 1.408-20.825-1.574.097-8.263.486-14.863.865m844-.431c-1.65.242-6.326 1.148-10.391 2.015-34.131 7.275-61.675 35.471-68.668 70.295-2.283 11.37-1.555 31.39 1.531 42.081 10.193 35.316 40.447 60.728 77.501 65.098 37.375 4.408 75.696-17.524 91.494-52.364 9.595-21.163 10.412-47.981 2.112-69.357-10.593-27.278-34.204-48.12-62.799-55.433-7.261-1.857-24.908-3.196-30.78-2.335M752.361 859.003c-27.974 30.35-50.998 55.552-51.166 56.004-.489 1.318 12.419 2.317 21.738 1.682 47.04-3.202 84.067-42.64 84.067-89.541 0-8.753-1.637-21.009-3.003-22.487-.426-.462-23.663 23.992-51.636 54.342M45.021 872.5c5.611 8.113 28.695 30.465 38.736 37.507 23.595 16.549 69.828 42.869 114.197 65.012 34.823 17.379 60.117 27.986 79.109 33.176 9.768 2.669-2.45 2.539 184.051 1.957l111.614-.349 1.297-5.407c.713-2.974 1.112-5.531.886-5.682-.226-.151-65.886.068-145.911.487-158.515.829-150.797 1.046-168.509-4.735-35.42-11.563-98.677-43.011-157.491-78.298-24.954-14.971-36.708-23.763-50.969-38.125-8.443-8.503-9.799-9.576-7.01-5.543" fill="undefined" fill-rule="evenodd"/></svg>