<?xml version="1.0" encoding="UTF-8" standalone="no"?>
<!-- Created with Inkscape (http://www.inkscape.org/) -->

<svg
   xmlns:dc="http://purl.org/dc/elements/1.1/"
   xmlns:cc="http://creativecommons.org/ns#"
   xmlns:rdf="http://www.w3.org/1999/02/22-rdf-syntax-ns#"
   xmlns:svg="http://www.w3.org/2000/svg"
   xmlns="http://www.w3.org/2000/svg"
   xmlns:sodipodi="http://sodipodi.sourceforge.net/DTD/sodipodi-0.dtd"
   xmlns:inkscape="http://www.inkscape.org/namespaces/inkscape"
   width="32"
   height="32"
   viewBox="0 0 8.4666667 8.4666667"
   version="1.1"
   id="svg8"
   inkscape:version="0.92.3 (2405546, 2018-03-11)"
   sodipodi:docname="boltbots-logo.svg"
   inkscape:export-filename="A:\boltbots-logo.png"
   inkscape:export-xdpi="768.00006"
   inkscape:export-ydpi="768.00006">
  <defs
     id="defs2">
    <filter
       inkscape:collect="always"
       style="color-interpolation-filters:sRGB"
       id="filter1292"
       x="-0.017926533"
       width="1.0358531"
       y="-0.0090184798"
       height="1.018037">
      <feGaussianBlur
         inkscape:collect="always"
         stdDeviation="0.34584823"
         id="feGaussianBlur1294" />
    </filter>
  </defs>
  <sodipodi:namedview
     id="base"
     pagecolor="#ffffff"
     bordercolor="#666666"
     borderopacity="1.0"
     inkscape:pageopacity="0.0"
     inkscape:pageshadow="2"
     inkscape:zoom="22.4"
     inkscape:cx="12.702475"
     inkscape:cy="16.004996"
     inkscape:document-units="mm"
     inkscape:current-layer="layer4"
     showgrid="false"
     inkscape:snap-global="false"
     inkscape:window-width="1802"
     inkscape:window-height="1057"
     inkscape:window-x="110"
     inkscape:window-y="-8"
     inkscape:window-maximized="1"
     units="px"
     inkscape:pagecheckerboard="true" />
  <metadata
     id="metadata5">
    <rdf:RDF>
      <cc:Work
         rdf:about="">
        <dc:format>image/svg+xml</dc:format>
        <dc:type
           rdf:resource="http://purl.org/dc/dcmitype/StillImage" />
        <dc:title></dc:title>
      </cc:Work>
    </rdf:RDF>
  </metadata>
  <g
     inkscape:groupmode="layer"
     id="layer4"
     inkscape:label="Layer 0">
    <g
       transform="translate(0.05011304,-288.45817)"
       style="stroke:#898989;stroke-opacity:1"
       id="g845">
      <g
         id="g838"
         style="fill:#e5e5e5;fill-opacity:1;stroke:#898989;stroke-opacity:1"
         transform="matrix(0.0628154,0,0,0.0628154,-3.2389727,282.3195)">
        <path
           style="color:#000000;display:inline;overflow:visible;visibility:visible;fill:#e5e5e5;fill-opacity:1;fill-rule:nonzero;stroke:#898989;stroke-width:15.11811066;stroke-linecap:round;stroke-linejoin:miter;stroke-miterlimit:4;stroke-dasharray:none;stroke-dashoffset:0;stroke-opacity:1;marker:none;marker-start:none;marker-mid:none;marker-end:none"
           d="m 499.33398,479.41602 -5.06054,29.08203 c -11.4564,-0.6637 -25.18803,-1.14081 -41.88282,-1.19141 -25.93454,-0.0786 -58.59592,0.83705 -99.27734,3.5332 -3.90367,4.86618 -4.85922,10.9356 -4.06445,17.40625 0.0969,4.68568 1.20298,9.02065 3.71289,13.5586 3.25376,8.2203 7.92313,16.21987 11.7793,22.47461 3.73103,6.05177 10.25281,14.9197 16.02539,22.51758 l -158.79297,36.29296 c -9.98468,4.0382 -22.9388,42.35938 -9.64453,42.35938 l 4.82812,0.01 -1.8125,13.73438 -3.31055,0.15039 c -9.5862,23.84655 -1.60184,45.66628 24.75,61.81836 29.69549,18.20149 65.37815,35.72886 75.7129,36 l 270.39843,-1.31641 c 10.33474,-0.27099 46.01745,-17.79847 75.71289,-36 26.35185,-16.15207 34.33617,-38.02841 24.75,-61.875 l -4.95117,-0.21093 -3.01562,-11.31055 12.88086,0.0273 -25.81055,-51.5625 -141.58399,-31.08594 h -0.52929 l 0.52929,-9.65039 c 0,0 11.39153,-8.8727 18.90625,-19.21875 9.84061,-13.54828 1.42969,-40.76562 1.42969,-40.76562 0,0 -10.74735,-3.1779 -39.14844,-5.2168 l 4.91602,-28.26758 z"
           transform="scale(0.26458333)"
           id="path836"
           inkscape:connector-curvature="0" />
      </g>
      <path
         sodipodi:nodetypes="cccccccccccc"
         inkscape:connector-curvature="0"
         id="path840"
         d="M 5.225309,289.87595 H 3.4446047 l -0.8191238,2.97971 1.2464935,0.0475 -0.5698255,1.54328 0.9734518,0.0713 -0.2967845,1.13966 1.5195345,-1.65013 -0.9853232,0.0119 1.0209367,-2.01813 H 4.2162437 Z"
         style="fill:none;fill-opacity:1;stroke:#898989;stroke-width:0.25126159;stroke-linecap:butt;stroke-linejoin:round;stroke-miterlimit:4;stroke-dasharray:none;stroke-opacity:1" />
    </g>
  </g>
  <g
     inkscape:label="Layer 1"
     inkscape:groupmode="layer"
     id="layer1"
     transform="translate(0,-288.53333)">
    <g
       id="g1140"
       style="fill:#e5e5e5;fill-opacity:1;stroke:#e5e5e5;stroke-opacity:1"
       transform="matrix(0.0628154,0,0,0.0628154,-3.2389727,282.3195)">
      <path
         style="color:#000000;display:inline;overflow:visible;visibility:visible;fill:#e5e5e5;fill-opacity:1;fill-rule:nonzero;stroke:#e5e5e5;stroke-width:15.11811066;stroke-linecap:round;stroke-linejoin:miter;stroke-miterlimit:4;stroke-dasharray:none;stroke-dashoffset:0;stroke-opacity:1;marker:none;marker-start:none;marker-mid:none;marker-end:none"
         d="m 499.33398,479.41602 -5.06054,29.08203 c -11.4564,-0.6637 -25.18803,-1.14081 -41.88282,-1.19141 -25.93454,-0.0786 -58.59592,0.83705 -99.27734,3.5332 -3.90367,4.86618 -4.85922,10.9356 -4.06445,17.40625 0.0969,4.68568 1.20298,9.02065 3.71289,13.5586 3.25376,8.2203 7.92313,16.21987 11.7793,22.47461 3.73103,6.05177 10.25281,14.9197 16.02539,22.51758 l -158.79297,36.29296 c -9.98468,4.0382 -22.9388,42.35938 -9.64453,42.35938 l 4.82812,0.01 -1.8125,13.73438 -3.31055,0.15039 c -9.5862,23.84655 -1.60184,45.66628 24.75,61.81836 29.69549,18.20149 65.37815,35.72886 75.7129,36 l 270.39843,-1.31641 c 10.33474,-0.27099 46.01745,-17.79847 75.71289,-36 26.35185,-16.15207 34.33617,-38.02841 24.75,-61.875 l -4.95117,-0.21093 -3.01562,-11.31055 12.88086,0.0273 -25.81055,-51.5625 -141.58399,-31.08594 h -0.52929 l 0.52929,-9.65039 c 0,0 11.39153,-8.8727 18.90625,-19.21875 9.84061,-13.54828 1.42969,-40.76562 1.42969,-40.76562 0,0 -10.74735,-3.1779 -39.14844,-5.2168 l 4.91602,-28.26758 z"
         transform="scale(0.26458333)"
         id="path1202"
         inkscape:connector-curvature="0" />
    </g>
    <path
       sodipodi:nodetypes="cccccccccccc"
       inkscape:connector-curvature="0"
       id="path1267"
       d="M 5.225309,289.87595 H 3.4446047 l -0.8191238,2.97971 1.2464935,0.0475 -0.5698255,1.54328 0.9734518,0.0713 -0.2967845,1.13966 1.5195345,-1.65013 -0.9853232,0.0119 1.0209367,-2.01813 H 4.2162437 Z"
       style="fill:none;fill-opacity:1;stroke:#e5e5e5;stroke-width:0.25126159;stroke-linecap:butt;stroke-linejoin:round;stroke-miterlimit:4;stroke-dasharray:none;stroke-opacity:1" />
  </g>
  <g
     inkscape:groupmode="layer"
     id="layer2"
     inkscape:label="Layer 2"
     style="display:inline"
     transform="translate(0,-288.53333)">
    <g
       id="g1242"
       transform="matrix(0.0628154,0,0,0.0628154,-3.2389727,282.3195)">
      <path
         inkscape:connector-curvature="0"
         d="m 137.38461,158.8177 -33.63362,0.37797 c 0,0 -5.249066,-6.5712 -7.299378,-9.89682 -2.408229,-3.90617 -6.039706,-10.37988 -3.023809,-14.13939 38.270667,-2.53638 49.715257,0.88745 49.715257,0.88745 0,0 2.22568,7.20134 -0.37798,10.78599 -1.98827,2.73739 -5.00249,5.08502 -5.00249,5.08502 z"
         style="color:#000000;display:inline;overflow:visible;visibility:visible;fill:#000000;fill-opacity:1;fill-rule:nonzero;stroke:none;stroke-width:0.47624999;stroke-linecap:round;stroke-linejoin:miter;stroke-miterlimit:4;stroke-dasharray:none;stroke-dashoffset:0;stroke-opacity:1;marker:none;marker-start:none;marker-mid:none;marker-end:none"
         id="path5534"
         sodipodi:nodetypes="ccsccccc" />
      <path
         inkscape:connector-curvature="0"
         d="m 56.12601,176.06703 125.92639,0.27134 -6.82897,-13.64244 -37.46084,-8.22496 h -33.63362 l -45.451621,10.38808 c -2.64178,1.06844 -6.068779,11.20798 -2.551339,11.20798 z"
         style="color:#000000;display:inline;overflow:visible;visibility:visible;fill:#000000;fill-opacity:1;fill-rule:nonzero;stroke:none;stroke-width:0.47624999;stroke-linecap:round;stroke-linejoin:miter;stroke-miterlimit:4;stroke-dasharray:none;stroke-dashoffset:0;stroke-opacity:1;marker:none;marker-start:none;marker-mid:none;marker-end:none"
         id="path5536"
         sodipodi:nodetypes="ccccccc" />
      <path
         inkscape:connector-curvature="0"
         d="m 95.550759,188.79302 c -1e-5,5.38498 -4.35825,9.75414 -9.74321,9.76765 -5.38496,0.0135 -9.76506,-4.33372 -9.7921,-9.71864 -0.0271,-5.38491 4.30919,-9.77592 9.69402,-9.81648 5.38482,-0.0406 9.78671,4.28462 9.84079,9.66933"
         style="fill:#000000;fill-opacity:1;fill-rule:evenodd;stroke:none;stroke-width:0.47624999px;stroke-linecap:butt;stroke-linejoin:miter;stroke-opacity:1"
         id="path1876" />
      <path
         inkscape:connector-curvature="0"
         d="m 117.15013,188.79302 c -2e-5,5.38498 -4.35825,9.75414 -9.74321,9.76765 -5.38497,0.0135 -9.765071,-4.33372 -9.792101,-9.71864 -0.0271,-5.38491 4.309181,-9.77592 9.694011,-9.81648 5.38483,-0.0406 9.78671,4.28462 9.8408,9.66933"
         style="fill:#000000;fill-opacity:1;fill-rule:evenodd;stroke:none;stroke-width:0.47624999px;stroke-linecap:butt;stroke-linejoin:miter;stroke-opacity:1"
         id="path1880" />
      <path
         inkscape:connector-curvature="0"
         d="m 139.26385,188.79302 c -2e-5,5.38498 -4.35825,9.75414 -9.74321,9.76765 -5.38497,0.0135 -9.76507,-4.33372 -9.79211,-9.71864 -0.0271,-5.38491 4.30919,-9.77592 9.69402,-9.81648 5.38483,-0.0406 9.78671,4.28462 9.8408,9.66933"
         style="fill:#000000;fill-opacity:1;fill-rule:evenodd;stroke:none;stroke-width:0.47624999px;stroke-linecap:butt;stroke-linejoin:miter;stroke-opacity:1"
         id="path3511" />
      <path
         style="color:#000000;display:inline;overflow:visible;visibility:visible;fill:#000000;fill-opacity:1;fill-rule:nonzero;stroke:none;stroke-width:0.47624999;stroke-linecap:round;stroke-linejoin:miter;stroke-miterlimit:4;stroke-dasharray:none;stroke-dashoffset:0;stroke-opacity:1;marker:none;marker-start:none;marker-mid:none;marker-end:none"
         d="m 60.601914,179.53466 -4.55414,0.20836 c -2.53635,6.3094 -0.42383,12.08264 6.54843,16.35621 7.85693,4.81581 17.29787,9.45326 20.03227,9.525 l 71.542866,-0.34818 c 2.7344,-0.0717 12.17534,-4.70918 20.03226,-9.525 6.97226,-4.27357 9.08478,-10.06169 6.54844,-16.3711 l -4.55414,-0.19347 c 1.37048,5.90333 2.5533,9.8877 -5.98289,13.93031 -6.98656,3.30872 -14.3715,7.24765 -15.52277,7.48605 l -72.584666,0.36308 c -1.15127,-0.23842 -8.52133,-4.19222 -15.50789,-7.50094 -8.53619,-4.0426 -7.36825,-8.02698 -5.99777,-13.93031 z"
         id="path1114"
         inkscape:connector-curvature="0"
         sodipodi:nodetypes="ccsccscccccscc" />
      <path
         inkscape:connector-curvature="0"
         d="m 161.20606,189.30384 c -1e-5,5.38498 -4.35824,9.75415 -9.7432,9.76766 -5.38497,0.0135 -9.76507,-4.33373 -9.79211,-9.71864 -0.0271,-5.38492 4.30919,-9.77592 9.69402,-9.81648 5.38483,-0.0406 9.78671,4.28462 9.8408,9.66933"
         style="fill:#000000;fill-opacity:1;fill-rule:evenodd;stroke:none;stroke-width:0.47624999px;stroke-linecap:butt;stroke-linejoin:miter;stroke-opacity:1"
         id="path1884" />
      <path
         inkscape:connector-curvature="0"
         d="m 174.74858,184.76454 c -1e-5,3.06956 -2.4843,5.56009 -5.55386,5.56779 -3.06956,0.008 -5.56632,-2.47033 -5.58173,-5.53986 -0.0154,-3.06953 2.45634,-5.5725 5.52582,-5.59563 3.06948,-0.0232 5.57866,2.44234 5.60949,5.51176"
         style="fill:#000000;fill-opacity:1;fill-rule:evenodd;stroke:none;stroke-width:0.47624999px;stroke-linecap:butt;stroke-linejoin:miter;stroke-opacity:1"
         id="path1886" />
      <path
         inkscape:connector-curvature="0"
         d="m 73.107574,184.95352 c -1e-5,3.06956 -2.4843,5.56009 -5.55386,5.56779 -3.06956,0.008 -5.56632,-2.47033 -5.58173,-5.53986 -0.0154,-3.06953 2.45634,-5.5725 5.52582,-5.59563 3.06948,-0.0232 5.57865,2.44234 5.60949,5.51176"
         style="fill:#000000;fill-opacity:1;fill-rule:evenodd;stroke:none;stroke-width:0.47624999px;stroke-linecap:butt;stroke-linejoin:miter;stroke-opacity:1"
         id="path1888" />
      <path
         style="opacity:1;fill:#181818;fill-opacity:1;stroke:none;stroke-width:7.55905533;stroke-linecap:round;stroke-linejoin:round;stroke-miterlimit:4;stroke-dasharray:none;stroke-dashoffset:0;stroke-opacity:1;paint-order:normal"
         d="m 349.04883,528.23438 c 0.0953,4.6902 1.20088,9.02856 3.71289,13.57031 h 59.55662 l 19.82424,-13.57031 z"
         transform="scale(0.26458333)"
         id="rect1122"
         inkscape:connector-curvature="0"
         sodipodi:nodetypes="ccccc" />
      <path
         style="fill:none;stroke:#000000;stroke-width:2;stroke-linecap:butt;stroke-linejoin:miter;stroke-miterlimit:4;stroke-dasharray:none;stroke-opacity:1"
         d="m 130.96207,139.31098 2.13815,-12.2944"
         id="path1127"
         inkscape:connector-curvature="0" />
    </g>
  </g>
  <g
     inkscape:groupmode="layer"
     id="layer3"
     inkscape:label="Layer 3"
     style="display:inline"
     transform="translate(0,-288.53333)">
    <path
       style="fill:#fff11a;fill-opacity:1;stroke:none;stroke-width:0.0166199px;stroke-linecap:butt;stroke-linejoin:miter;stroke-opacity:1"
       d="M 5.225309,289.87595 H 3.4446047 l -0.8191238,2.97971 1.2464935,0.0475 -0.5698255,1.54328 0.9734518,0.0713 -0.2967845,1.13966 1.5195345,-1.65013 -0.9853232,0.0119 1.0209367,-2.01813 H 4.2162437 Z"
       id="path1263"
       inkscape:connector-curvature="0"
       sodipodi:nodetypes="cccccccccccc" />
    <path
       style="fill:#fff88d;fill-opacity:1;stroke:none;stroke-width:0.0166199px;stroke-linecap:butt;stroke-linejoin:miter;stroke-opacity:1"
       d="m 3.4445999,289.87594 -0.8191148,2.9797 1.2464936,0.0475 -0.5698165,1.54328 0.9734329,0.0713 -0.2967881,1.13967 0.1620314,-0.17134 0.3009651,-0.96833 -0.9497224,-0.0713 0.7123047,-1.54328 -1.3770781,-0.0475 1.044671,-2.9797 z m 2.05376,4.13126 -0.5553392,0.007 -0.00267,0.005 0.5531966,-0.006 z"
       id="path1270"
       inkscape:connector-curvature="0"
       sodipodi:nodetypes="cccccccccccccccccc" />
    <path
       style="fill:#ffc31a;fill-opacity:1;stroke:none;stroke-width:0.0166199px;stroke-linecap:butt;stroke-linejoin:miter;stroke-opacity:1"
       d="m 4.8098023,289.87594 -0.8072292,2.12498 h 0.213684 l 1.0090428,-2.12498 z m 0.3086693,2.12498 -0.8310142,2.01811 0.2280877,-0.005 1.0184241,-2.0131 z m 0.3798883,2.00628 -0.1856802,0.005 -1.0899116,1.19404 -0.2439611,0.451 z"
       id="path1275"
       inkscape:connector-curvature="0"
       sodipodi:nodetypes="ccccccccccccccc" />
    <path
       style="fill:none;fill-opacity:1;stroke:#f9d86e;stroke-width:0.5;stroke-linecap:butt;stroke-linejoin:round;stroke-miterlimit:4;stroke-dasharray:none;stroke-opacity:1;filter:url(#filter1292)"
       d="M 134.74851,120.29611 H 106.4003 l -13.040182,47.43602 19.843762,0.75595 -9.07143,24.56845 15.49702,1.13393 -4.72471,18.14286 24.19048,-26.26935 -15.68601,0.18899 16.25297,-32.12797 h -20.97767 z"
       id="path1281"
       inkscape:connector-curvature="0"
       sodipodi:nodetypes="cccccccccccc"
       transform="matrix(0.0628154,0,0,0.0628154,-3.2389727,282.3195)" />
  </g>
</svg>
